<?xml version="1.0" encoding="UTF-8"?>
<svg id="Layer_1" xmlns="http://www.w3.org/2000/svg" version="1.1" viewBox="0 0 3116 3000">
  <!-- Generator: Adobe Illustrator 30.0.0, SVG Export Plug-In . SVG Version: 2.1.1 Build 123)  -->
  <defs>
    <style>
      .st0 {
        fill: #ae3896;
      }

      .st1 {
        fill: #1a3a56;
      }
    </style>
  </defs>
  <path class="st0" d="M1106.81,1874.77c42.68,98.33,102.88,186.74,179.02,262.88,78.06,78.06,169.01,139.37,270.33,182.22,105,44.41,216.42,66.93,331.17,66.93s226.17-22.52,331.17-66.93c99.82-42.22,189.56-102.36,266.84-178.78l-268.33-276.48c-84.36,84.67-201,137.14-329.68,137.14-217.66,0-400.88-150.13-451.63-352.27h-199.67v-223.93h199c49.77-203.52,233.66-355,452.3-355,128.49,0,244.99,52.32,329.32,136.77l268.32-276.48c-77.2-76.24-166.82-136.26-266.48-178.41-105-44.41-216.42-66.93-331.17-66.93s-226.17,22.52-331.17,66.93c-101.32,42.85-192.27,104.16-270.33,182.22-78.06,78.06-139.37,169.01-182.22,270.33-.49,1.16-.96,2.32-1.44,3.47h127.04v213h-184.87c-5.08,37.78-7.65,76.04-7.65,114.69s2.45,75.07,7.29,111.96h186.59v226.66h-123.76ZM1241.49,1887.06h95.58v95.58h-95.58v-95.58ZM1353.46,1104.68h81.92v81.92h-81.92v-81.92Z"/>
  <path class="st1" d="M1887.33,544.19c270.79,0,516.57,109.07,695.74,285.58l33.61-34.63c-94.16-92.72-203.33-165.72-324.63-217.02-128.2-54.22-264.37-81.72-404.73-81.72s-276.52,27.49-404.73,81.72c-123.82,52.37-235.01,127.34-330.49,222.82-72.22,72.22-132.7,153.44-180.54,242.31h55.15c171.33-297.97,492.93-499.06,860.61-499.06Z"/>
  <path class="st1" d="M2583.44,2242.18c-179.21,176.72-425.14,285.94-696.11,285.94-354.04,0-665.34-186.44-840.91-466.29h-56.43c44.64,76.14,98.88,146.29,162.13,209.54,95.48,95.48,206.67,170.45,330.49,222.82,128.2,54.22,264.37,81.72,404.73,81.72s276.52-27.49,404.73-81.72c121.45-51.37,230.75-124.5,324.99-217.38l-33.61-34.63Z"/>
  <rect class="st1" x="1480.44" y="1544.34" width="103.77" height="103.77"/>
  <rect class="st1" x="1618.34" y="1409.17" width="84.66" height="84.66"/>
  <polygon class="st1" points="916.64 1331.34 999.82 1331.34 999.82 1110.15 991.59 1110.15 938.58 1110.15 778.62 1110.15 778.62 1331.34 867.69 1331.34 916.64 1331.34"/>
  <polygon class="st1" points="1059.89 2016.77 1059.89 1874.77 1059.89 1795.58 1003.91 1795.58 929.77 1795.58 880.15 1795.58 838.7 1795.58 838.7 2016.77 965.06 2016.77 1019.78 2016.77 1059.89 2016.77"/>
  <rect class="st1" x="602.48" y="1298.57" width="139.27" height="139.27"/>
  <rect class="st1" x="718.54" y="1654.94" width="120.16" height="120.16"/>
  <polygon class="st1" points="868.74 1487 868.74 1593.5 897.02 1593.5 975.24 1593.5 975.24 1487 896.58 1487 868.74 1487"/>
  <rect class="st1" x="480.96" y="1499.29" width="103.77" height="103.77"/>
  <rect class="st1" x="572.44" y="1684.98" width="60.08" height="60.08"/>
  <rect class="st1" x="412.69" y="1290.38" width="68.27" height="68.27"/>
</svg>