<?xml version="1.0" encoding="UTF-8"?>
<svg id="Layer_1" data-name="Layer 1" xmlns="http://www.w3.org/2000/svg" viewBox="0 0 2798.61 760.7">
  <defs>
    <style>
      .cls-1 {
        fill: #fff;
      }
    </style>
  </defs>
  <path class="cls-1" d="M286.28,528.35c12.38,28.52,29.84,54.16,51.92,76.24,22.64,22.64,49.02,40.42,78.4,52.85,30.45,12.88,62.77,19.41,96.05,19.41s65.59-6.53,96.05-19.41c28.95-12.24,54.98-29.69,77.39-51.85l-77.82-80.19c-24.47,24.56-58.29,39.77-95.61,39.77-63.12,0-116.26-43.54-130.98-102.17h-57.91v-64.94h57.71c14.44-59.02,67.77-102.96,131.17-102.96,37.27,0,71.05,15.17,95.51,39.67l77.82-80.18c-22.39-22.11-48.38-39.52-77.28-51.74-30.45-12.88-62.77-19.41-96.05-19.41s-65.59,6.53-96.05,19.41c-29.38,12.43-55.76,30.21-78.4,52.85-22.64,22.64-40.42,49.02-52.85,78.4-.14.34-.28.67-.42,1.01h36.84v61.78h-53.62c-1.47,10.96-2.22,22.05-2.22,33.26s.71,21.77,2.12,32.47h54.12v65.74h-35.89ZM325.34,531.92h27.72v27.72h-27.72v-27.72ZM357.81,305.01h23.76v23.76h-23.76v-23.76Z"/>
  <path class="cls-1" d="M512.65,142.46c78.53,0,149.81,31.63,201.78,82.82l9.75-10.04c-27.31-26.89-58.97-48.06-94.15-62.94-37.18-15.73-76.67-23.7-117.38-23.7s-80.2,7.97-117.38,23.7c-35.91,15.19-68.16,36.93-95.85,64.62-20.95,20.95-38.49,44.5-52.36,70.27h15.99c49.69-86.42,142.96-144.74,249.59-144.74Z"/>
  <path class="cls-1" d="M714.53,634.91c-51.97,51.25-123.3,82.93-201.89,82.93-102.68,0-192.96-54.07-243.88-135.23h-16.37c12.95,22.08,28.68,42.43,47.02,60.77,27.69,27.69,59.94,49.43,95.85,64.62,37.18,15.73,76.67,23.7,117.38,23.7s80.2-7.97,117.38-23.7c35.22-14.9,66.92-36.11,94.25-63.05l-9.75-10.04Z"/>
  <rect class="cls-1" x="394.64" y="414.51" width="48.11" height="48.11"/>
  <rect class="cls-1" x="458.57" y="351.84" width="39.25" height="39.25"/>
  <polygon class="cls-1" points="222.31 361.82 247.64 361.82 247.64 294.45 245.14 294.45 228.99 294.45 180.27 294.45 180.27 361.82 207.4 361.82 222.31 361.82"/>
  <polygon class="cls-1" points="265.94 570.59 265.94 527.34 265.94 503.22 248.89 503.22 226.31 503.22 211.2 503.22 198.57 503.22 198.57 570.59 237.06 570.59 253.72 570.59 265.94 570.59"/>
  <rect class="cls-1" x="126.63" y="351.84" width="42.42" height="42.42"/>
  <rect class="cls-1" x="161.98" y="460.38" width="36.6" height="36.6"/>
  <polygon class="cls-1" points="207.72 409.23 207.72 441.67 216.34 441.67 240.16 441.67 240.16 409.23 216.2 409.23 207.72 409.23"/>
  <rect class="cls-1" x="89.62" y="412.98" width="31.61" height="31.61"/>
  <rect class="cls-1" x="117.48" y="469.53" width="18.3" height="18.3"/>
  <rect class="cls-1" x="68.82" y="349.35" width="20.79" height="20.79"/>
  <g>
    <path class="cls-1" d="M861.91,667.55c-8.79-3.96-15.98-9.71-21.54-17.26-5.57-7.55-8.65-16.45-9.23-26.71h32.98c.73,7.33,3.74,12.86,9.01,16.6,5.28,3.74,10.92,5.61,16.93,5.61s11.32-1.39,15.5-4.18c4.18-2.78,6.27-6.89,6.27-12.31s-2.24-9.38-6.71-11.87c-4.47-2.49-11.1-4.32-19.9-5.5-17-2.05-30.56-6.71-40.67-13.96s-15.17-17.55-15.17-30.89c0-8.79,2.49-16.45,7.47-22.97,4.98-6.52,11.61-11.5,19.9-14.95,8.28-3.44,17.33-5.17,27.15-5.17s19.31,1.94,28.03,5.83c8.72,3.88,15.83,9.49,21.32,16.82,5.5,7.33,8.46,15.9,8.9,25.72h-32.98c-.74-7.18-3.41-12.42-8.02-15.72-4.62-3.3-10.37-4.95-17.26-4.95-5.57,0-10.33,1.47-14.29,4.4-3.96,2.93-5.94,6.67-5.94,11.21s2.05,8.17,6.16,10.88c4.1,2.71,10.55,4.73,19.35,6.05,18.91,2.64,33.16,7.62,42.76,14.95,9.6,7.33,14.4,17.95,14.4,31.88,0,9.38-2.6,17.26-7.8,23.63-5.2,6.38-12.06,11.1-20.55,14.18-8.5,3.08-17.66,4.62-27.48,4.62s-19.79-1.98-28.58-5.94Z"/>
    <path class="cls-1" d="M1004.25,664.25c-11.8-6.16-21.21-14.84-28.25-26.05-7.03-11.21-10.55-24-10.55-38.36,0-15.09,3.52-28.39,10.55-39.9,7.03-11.5,16.45-20.37,28.25-26.6,11.8-6.23,24.58-9.34,38.36-9.34s26.63,3.12,38.14,9.34c11.5,6.23,20.63,14.99,27.37,26.27,6.74,11.29,10.11,24.26,10.11,38.91s-3.34,27.26-10,38.69c-6.67,11.43-15.79,20.33-27.37,26.71-11.58,6.38-24.4,9.56-38.47,9.56s-26.35-3.08-38.14-9.23ZM1006.89,621.38c3.59,6.59,8.5,11.76,14.73,15.5,6.23,3.74,13.15,5.61,20.77,5.61s14.43-1.83,20.44-5.5c6.01-3.66,10.73-8.79,14.18-15.39,3.44-6.6,5.17-14.14,5.17-22.64s-1.72-16.3-5.17-22.97c-3.45-6.67-8.17-11.83-14.18-15.5-6.01-3.66-12.83-5.5-20.44-5.5s-14.55,1.83-20.77,5.5c-6.23,3.67-11.14,8.83-14.73,15.5-3.59,6.67-5.39,14.33-5.39,22.97s1.79,15.83,5.39,22.42Z"/>
    <path class="cls-1" d="M1137.58,526.19h36.05v114.1h65.29v31h-101.35v-145.09Z"/>
    <path class="cls-1" d="M1284.43,666.23c-9.38-4.84-16.64-11.61-21.76-20.33-5.13-8.72-7.69-18.8-7.69-30.23v-89.47h35.83v86.4c0,9.09,2.27,16.34,6.81,21.76,4.54,5.42,11.14,8.13,19.79,8.13s14.98-2.71,19.46-8.13c4.47-5.42,6.71-12.68,6.71-21.76v-86.4h35.83v89.47c0,11.14-2.53,21.1-7.58,29.9s-12.31,15.65-21.76,20.56c-9.45,4.91-20.41,7.36-32.87,7.36s-23.38-2.42-32.76-7.25Z"/>
    <path class="cls-1" d="M1440.96,557.19h-42.21v-31h120.69v31h-42.43l-.22,114.1h-35.83v-114.1Z"/>
    <path class="cls-1" d="M1538.56,526.19h34.29v145.09h-34.29v-145.09Z"/>
    <path class="cls-1" d="M1631,664.25c-11.8-6.16-21.21-14.84-28.25-26.05-7.03-11.21-10.55-24-10.55-38.36,0-15.09,3.52-28.39,10.55-39.9,7.03-11.5,16.45-20.37,28.25-26.6,11.8-6.23,24.58-9.34,38.36-9.34s26.63,3.12,38.14,9.34c11.5,6.23,20.63,14.99,27.37,26.27,6.74,11.29,10.11,24.26,10.11,38.91s-3.33,27.26-10,38.69c-6.67,11.43-15.79,20.33-27.37,26.71-11.58,6.38-24.4,9.56-38.47,9.56s-26.35-3.08-38.14-9.23ZM1633.64,621.38c3.59,6.59,8.5,11.76,14.73,15.5,6.23,3.74,13.15,5.61,20.77,5.61s14.43-1.83,20.44-5.5c6.01-3.66,10.73-8.79,14.18-15.39,3.44-6.6,5.17-14.14,5.17-22.64s-1.72-16.3-5.17-22.97c-3.45-6.67-8.17-11.83-14.18-15.5-6.01-3.66-12.83-5.5-20.44-5.5s-14.55,1.83-20.77,5.5c-6.23,3.67-11.14,8.83-14.73,15.5-3.59,6.67-5.39,14.33-5.39,22.97s1.79,15.83,5.39,22.42Z"/>
    <path class="cls-1" d="M1764.34,526.19h30.78l56.06,84.42v-84.42h36.05v145.09h-30.56l-56.5-82v82h-35.83v-145.09Z"/>
    <path class="cls-1" d="M1938.88,667.55c-8.79-3.96-15.98-9.71-21.54-17.26-5.57-7.55-8.65-16.45-9.23-26.71h32.98c.73,7.33,3.74,12.86,9.01,16.6,5.28,3.74,10.92,5.61,16.93,5.61s11.32-1.39,15.5-4.18c4.18-2.78,6.27-6.89,6.27-12.31s-2.24-9.38-6.71-11.87c-4.47-2.49-11.1-4.32-19.9-5.5-17-2.05-30.56-6.71-40.67-13.96-10.11-7.25-15.17-17.55-15.17-30.89,0-8.79,2.49-16.45,7.47-22.97,4.98-6.52,11.61-11.5,19.9-14.95,8.28-3.44,17.33-5.17,27.15-5.17s19.31,1.94,28.03,5.83c8.72,3.88,15.83,9.49,21.32,16.82,5.5,7.33,8.46,15.9,8.9,25.72h-32.98c-.74-7.18-3.41-12.42-8.02-15.72-4.62-3.3-10.37-4.95-17.26-4.95-5.57,0-10.33,1.47-14.29,4.4-3.96,2.93-5.94,6.67-5.94,11.21s2.05,8.17,6.16,10.88c4.1,2.71,10.55,4.73,19.35,6.05,18.91,2.64,33.16,7.62,42.76,14.95,9.6,7.33,14.4,17.95,14.4,31.88,0,9.38-2.6,17.26-7.8,23.63-5.2,6.38-12.06,11.1-20.55,14.18-8.5,3.08-17.66,4.62-27.48,4.62s-19.79-1.98-28.58-5.94Z"/>
  </g>
  <g>
    <path class="cls-1" d="M1093.77,403.38c-14.35,16.08-31.61,28.78-51.77,38.1-20.17,9.33-41.94,13.99-65.34,13.99-28.42,0-54.29-6.71-77.61-20.13-23.32-13.42-41.91-31.43-55.76-54.03-13.85-22.6-20.77-47.61-20.77-75.02s6.92-52.42,20.77-75.02c13.85-22.6,32.43-40.61,55.76-54.03,23.32-13.42,49.19-20.13,77.61-20.13,23.39,0,45.17,4.67,65.34,13.99,20.16,9.33,37.42,22.03,51.77,38.1l-59.63,59.42c-6.17-9.47-14.28-17.01-24.33-22.6-10.05-5.6-21.1-8.4-33.15-8.4-18.94,0-35.13,6.71-48.54,20.13s-20.13,29.6-20.13,48.54,6.71,35.16,20.13,48.65c13.42,13.49,29.6,20.24,48.54,20.24,12.06,0,23.1-2.83,33.15-8.5,10.04-5.67,18.15-13.24,24.33-22.71l59.63,59.42Z"/>
    <path class="cls-1" d="M1360.07,156.67h.22l112.59,298.37v.43h-95.37c-.14,0-.29-.07-.43-.22l-85.25-225.82-85.25,225.82-.22.22h-95.58v-.43l112.8-298.37h136.48Z"/>
    <path class="cls-1" d="M1778.35,375.18v80.3h-268.45V156.24h82.02v218.93h186.43Z"/>
    <path class="cls-1" d="M2035.6,156.67h.22l112.59,298.37v.43h-95.37c-.14,0-.29-.07-.43-.22l-85.25-225.82-85.25,225.82-.22.22h-95.58v-.43l112.8-298.37h136.48Z"/>
    <path class="cls-1" d="M2349.04,384.86h-81.59v68.46h-82.02V154.09l180.62.65c21.38.29,40.69,5.53,57.91,15.71,17.22,10.19,30.96,23.97,41.22,41.33,10.26,17.37,15.39,36.6,15.39,57.69s-4.88,39.32-14.64,56.4c-9.76,17.08-22.89,30.86-39.4,41.33l62.43,86.11h-90.42l-49.51-68.46ZM2269.6,229.44v69.96h96.01c9.61,0,17.87-3.41,24.76-10.23,6.89-6.81,10.33-15.1,10.33-24.86s-3.44-17.83-10.33-24.65c-6.89-6.82-15.14-10.23-24.76-10.23h-96.01Z"/>
    <path class="cls-1" d="M2548.6,455.47V157.1h82.02v298.37h-82.02Z"/>
  </g>
  <ellipse class="cls-1" cx="2390.12" cy="614.15" rx="311.09" ry="4.7"/>
</svg>